<svg aria-hidden="true" style="position: absolute; width: 0; height: 0; overflow: hidden;" version="1.1" xmlns="http://www.w3.org/2000/svg" xmlns:xlink="http://www.w3.org/1999/xlink">
<defs>
<symbol id="twitter-2" viewBox="0 0 32 32">
<title>twitter-2</title>
<path d="M32 6.078c-1.19 0.522-2.458 0.868-3.78 1.036 1.36-0.812 2.398-2.088 2.886-3.626-1.268 0.756-2.668 1.29-4.16 1.588-1.204-1.282-2.92-2.076-4.792-2.076-3.632 0-6.556 2.948-6.556 6.562 0 0.52 0.044 1.020 0.152 1.496-5.454-0.266-10.28-2.88-13.522-6.862-0.566 0.982-0.898 2.106-0.898 3.316 0 2.272 1.17 4.286 2.914 5.452-1.054-0.020-2.088-0.326-2.964-0.808 0 0.020 0 0.046 0 0.072 0 3.188 2.274 5.836 5.256 6.446-0.534 0.146-1.116 0.216-1.72 0.216-0.42 0-0.844-0.024-1.242-0.112 0.85 2.598 3.262 4.508 6.13 4.57-2.232 1.746-5.066 2.798-8.134 2.798-0.538 0-1.054-0.024-1.57-0.090 2.906 1.874 6.35 2.944 10.064 2.944 12.072 0 18.672-10 18.672-18.668 0-0.29-0.010-0.57-0.024-0.848 1.302-0.924 2.396-2.078 3.288-3.406z"></path>
</symbol>
<symbol id="tumblr" viewBox="0 0 32 32">
<title>tumblr</title>
<path d="M21.802 26.784c-0.888 0-1.72-0.208-2.408-0.628-0.55-0.32-1.034-0.864-1.226-1.382-0.192-0.528-0.172-1.608-0.172-3.456v-7.328h8.006v-5.988h-8.006v-8.002h-5.158c-0.208 1.646-0.582 3.012-1.132 4.068-0.526 1.076-1.266 1.986-2.14 2.756-0.904 0.762-2.304 1.344-3.568 1.758v4.534h4.294v11.214c0 1.47 0.148 2.592 0.464 3.358 0.31 0.772 0.84 1.498 1.65 2.178 0.796 0.688 1.748 1.216 2.886 1.588 1.108 0.366 1.98 0.546 3.446 0.546 1.286 0 2.488-0.122 3.588-0.392 1.102-0.25 2.3-0.63 3.676-1.272v-4.81c-1.608 1.050-2.578 1.258-4.2 1.258z"></path>
</symbol>
<symbol id="linkedin" viewBox="0 0 32 32">
<title>linkedin</title>
<path d="M0 10h7.156v22h-7.156v-22z"></path>
<path d="M26.648 10.258c-0.076-0.024-0.148-0.050-0.228-0.072-0.096-0.022-0.192-0.040-0.29-0.056-0.38-0.076-0.796-0.13-1.284-0.13-4.172 0-6.818 3.034-7.69 4.206v-4.206h-7.156v22h7.156v-12c0 0 5.408-7.532 7.69-2 0 4.938 0 14 0 14h7.154v-14.846c0-3.324-2.278-6.094-5.352-6.896z"></path>
<path d="M7 3.5c0 1.933-1.567 3.5-3.5 3.5s-3.5-1.567-3.5-3.5c0-1.933 1.567-3.5 3.5-3.5s3.5 1.567 3.5 3.5z"></path>
</symbol>
<symbol id="instagram-2" viewBox="0 0 32 32">
<title>instagram-2</title>
<path d="M22 0h-12c-5.522 0-10 4.478-10 10v12c0 5.522 4.478 10 10 10h12c5.522 0 10-4.478 10-10v-12c0-5.522-4.478-10-10-10zM29 22c0 3.86-3.14 7-7 7h-12c-3.86 0-7-3.14-7-7v-12c0-3.86 3.14-7 7-7h12c3.86 0 7 3.14 7 7v12z"></path>
<path d="M16 8c-4.418 0-8 3.582-8 8s3.582 8 8 8 8-3.582 8-8-3.582-8-8-8zM16 21c-2.756 0-5-2.244-5-5 0-2.758 2.244-5 5-5s5 2.242 5 5c0 2.756-2.244 5-5 5z"></path>
<path d="M25.666 7.4c0 0.589-0.477 1.066-1.066 1.066s-1.066-0.477-1.066-1.066c0-0.589 0.477-1.066 1.066-1.066s1.066 0.477 1.066 1.066z"></path>
</symbol>
<symbol id="google-plus" viewBox="0 0 32 32">
<title>google-plus</title>
<path d="M28 14v-4h-2v4h-4v2h4v4h2v-4h4v-2z"></path>
<path d="M10 14v4h5.658c-0.826 2.328-3.050 4-5.658 4-3.308 0-6-2.692-6-6s2.692-6 6-6c1.434 0 2.814 0.514 3.886 1.448l2.628-3.016c-1.8-1.568-4.112-2.432-6.514-2.432-5.514 0-10 4.486-10 10s4.486 10 10 10 10-4.486 10-10v-2h-10z"></path>
</symbol>
<symbol id="facebook-2" viewBox="0 0 32 32">
<title>facebook-2</title>
<path d="M18 11v-4c0-1.104 0.896-2 2-2h2v-5h-4c-3.314 0-6 2.686-6 6v5h-4v5h4v16h6v-16h4l2-5h-6z"></path>
</symbol>
<symbol id="info" viewBox="0 0 32 32">
<title>info</title>
<path d="M18.268 7.167c0.979 0 1.773 0.712 1.773 1.764 0 1.050-0.794 1.762-1.773 1.762s-1.773-0.711-1.773-1.762c0-1.051 0.794-1.764 1.773-1.764zM16.922 11.928c1.231 0.127 1.813 1.111 1.599 2.193l-2.578 8.521c-0.034 0.192 0.068 0.386 0.242 0.448 0.19 0.066 0.588-0.178 0.909-0.53l1.547-1.861c0.043 0.312-0.027 0.86-0.027 1.069-1.163 1.745-2.347 3.091-4.337 3.091-1.358-0.22-1.915-1.195-1.621-2.187l2.56-8.479c0.062-0.209-0.041-0.429-0.231-0.497-0.19-0.066-0.559 0.179-0.879 0.53l-1.547 1.861c-0.043-0.311-0.005-0.828-0.005-1.037 1.163-1.745 3.073-3.123 4.369-3.123zM0.791 16.1c0 8.508 6.898 15.407 15.407 15.407s15.407-6.899 15.407-15.407c0-8.51-6.898-15.407-15.407-15.407s-15.407 6.898-15.407 15.407z"></path>
</symbol>
<symbol id="like" viewBox="0 0 37 32">
<title>like</title>
<path d="M18.667 5.793s-2.667-5.681-8.667-5.681c-6.556 0-10 5.555-10 11.109 0 9.223 18.667 20.667 18.667 20.667s18.556-11.333 18.556-20.667c0-5.667-3.556-11.109-9.889-11.109s-8.667 5.681-8.667 5.681z"></path>
</symbol>
<symbol id="link" viewBox="0 0 25 32">
<title>link</title>
<path d="M23.829 8.38l-4.308 7.461c-0.434 0.741-1.225 1.231-2.132 1.231-0.453 0-0.878-0.122-1.242-0.336l0.012 0.006-1.066-0.615 1.231-2.132c0.177 0.104 0.389 0.165 0.615 0.165 0.453 0 0.849-0.245 1.063-0.61l0.003-0.006 3.077-5.329c0.104-0.177 0.165-0.389 0.165-0.615 0-0.453-0.245-0.849-0.61-1.063l-0.006-0.003-4.263-2.462c-0.177-0.104-0.389-0.165-0.616-0.165-0.453 0-0.848 0.244-1.062 0.609l-0.003 0.006-3.077 5.329c-0.104 0.177-0.165 0.389-0.165 0.616 0 0.453 0.245 0.849 0.61 1.063l0.006 0.003-1.231 2.132-1.066-0.615c-0.741-0.434-1.231-1.225-1.231-2.132 0-0.453 0.122-0.878 0.336-1.242l-0.006 0.012 4.308-7.461c0.434-0.741 1.225-1.231 2.132-1.231 0.453 0 0.878 0.122 1.242 0.336l-0.012-0.006 6.395 3.692c0.741 0.434 1.231 1.225 1.231 2.132 0 0.453-0.122 0.878-0.336 1.242l0.006-0.012zM9.269 21.291c-0.37-0.217-0.615-0.613-0.615-1.066 0-0.227 0.061-0.439 0.168-0.621l-0.003 0.006 4.923-8.527c0.218-0.367 0.611-0.608 1.062-0.608 0.68 0 1.231 0.551 1.231 1.231 0 0.224-0.060 0.434-0.164 0.614l0.003-0.006-4.923 8.527c-0.217 0.37-0.613 0.615-1.066 0.615-0.227 0-0.439-0.061-0.621-0.168l0.006 0.003zM8.368 17.929c-0.177-0.104-0.389-0.165-0.615-0.165-0.453 0-0.849 0.245-1.063 0.61l-0.003 0.006-3.077 5.329c-0.104 0.177-0.165 0.389-0.165 0.615 0 0.453 0.245 0.849 0.61 1.063l0.006 0.003 4.263 2.462c0.177 0.104 0.389 0.165 0.615 0.165 0.453 0 0.849-0.245 1.063-0.61l0.003-0.006 3.077-5.329c0.104-0.177 0.165-0.389 0.165-0.615 0-0.453-0.245-0.849-0.61-1.063l-0.006-0.003 1.231-2.132 1.066 0.615c0.741 0.434 1.231 1.225 1.231 2.132 0 0.453-0.122 0.878-0.336 1.242l0.006-0.012-4.308 7.461c-0.434 0.741-1.225 1.231-2.132 1.231-0.453 0-0.878-0.122-1.242-0.336l0.012 0.006-6.395-3.692c-0.741-0.434-1.231-1.225-1.231-2.132 0-0.453 0.122-0.878 0.336-1.242l-0.006 0.012 4.308-7.461c0.434-0.741 1.225-1.231 2.132-1.231 0.453 0 0.878 0.122 1.242 0.336l-0.012-0.006 1.066 0.615z"></path>
</symbol>
<symbol id="zoom" viewBox="0 0 32 32">
<title>zoom</title>
<path d="M30.498 30.478l-0.757 0.756c-0.387 0.387-0.922 0.627-1.513 0.627s-1.126-0.24-1.513-0.627l-6.052-6.053c-0.702-0.701-0.779-1.753-0.303-2.571l-3.309-3.31c-1.752 1.319-3.964 2.112-6.362 2.112h-0c-5.909 0-10.701-4.791-10.701-10.701s4.791-10.7 10.701-10.7 10.7 4.788 10.7 10.7c0 2.751-1.047 5.251-2.752 7.147l3.236 3.237c0.819-0.476 1.87-0.399 2.572 0.302l6.053 6.053c0.388 0.387 0.627 0.922 0.627 1.514s-0.24 1.126-0.627 1.514v0zM18.691 10.667c0-4.432-3.593-8.025-8.025-8.025v0c-1.251 0.007-2.432 0.301-3.481 0.821l0.046-0.021c0.558 0.573 1.401 1.429 1.445 1.429-0.869 0-3.716 2.848-3.716 3.783 0-0.045-0.907-0.905-1.499-1.462-0.512 1.013-0.814 2.208-0.821 3.472v0.002c-0 0.027-0.001 0.060-0.001 0.093 0 4.432 3.593 8.026 8.026 8.026s8.026-3.593 8.026-8.026c0-0.033-0-0.065-0.001-0.097l0 0.005z"></path>
</symbol>
</defs>
</svg>
